<mxfile host="app.diagrams.net" modified="2023-05-29T23:29:17.453Z" agent="Mozilla/5.0 (Windows NT 10.0; Win64; x64) AppleWebKit/537.36 (KHTML, like Gecko) Chrome/113.0.0.0 Safari/537.36" etag="iqipXLkPawxx5aZH1RAy" version="21.3.5" type="device">
  <diagram id="g-p-oNTX_QPBatjOgXq3" name="Página-1">
    <mxGraphModel dx="933" dy="377" grid="1" gridSize="10" guides="1" tooltips="1" connect="1" arrows="1" fold="1" page="1" pageScale="1" pageWidth="827" pageHeight="1169" math="0" shadow="0">
      <root>
        <mxCell id="0" />
        <mxCell id="1" parent="0" />
        <mxCell id="1LxWyL0kok7ss3I2IQLW-1" value="" style="shape=process;whiteSpace=wrap;html=1;backgroundOutline=1;size=0;" parent="1" vertex="1">
          <mxGeometry x="10" width="770" height="1970" as="geometry" />
        </mxCell>
        <mxCell id="dXfcMeJBa3Ihmd3_0wnO-1" style="edgeStyle=orthogonalEdgeStyle;rounded=0;orthogonalLoop=1;jettySize=auto;html=1;exitX=0.5;exitY=1;exitDx=0;exitDy=0;" edge="1" parent="1" source="1LxWyL0kok7ss3I2IQLW-1" target="1LxWyL0kok7ss3I2IQLW-1">
          <mxGeometry relative="1" as="geometry" />
        </mxCell>
        <mxCell id="dXfcMeJBa3Ihmd3_0wnO-2" value="" style="swimlane;startSize=40;" vertex="1" parent="1">
          <mxGeometry x="40" y="220" width="370" height="240" as="geometry" />
        </mxCell>
        <mxCell id="dXfcMeJBa3Ihmd3_0wnO-3" value="" style="swimlane;startSize=40;" vertex="1" parent="1">
          <mxGeometry x="400" y="515" width="370" height="240" as="geometry" />
        </mxCell>
        <mxCell id="dXfcMeJBa3Ihmd3_0wnO-4" value="&lt;h1&gt;Beneficio 2&lt;/h1&gt;&lt;p&gt;Lorem ipsum dolor sit amet, consectetur adipisicing elit, sed do eiusmod tempor incididunt ut labore et dolore magna aliqua.&lt;/p&gt;" style="text;html=1;strokeColor=none;fillColor=none;spacing=5;spacingTop=-20;whiteSpace=wrap;overflow=hidden;rounded=0;" vertex="1" parent="1">
          <mxGeometry x="40" y="515" width="310" height="170" as="geometry" />
        </mxCell>
        <mxCell id="dXfcMeJBa3Ihmd3_0wnO-5" value="&lt;h1&gt;Beneficio 1&lt;/h1&gt;&lt;p&gt;Lorem ipsum dolor sit amet, consectetur adipisicing elit, sed do eiusmod tempor incididunt ut labore et dolore magna aliqua.&lt;/p&gt;" style="text;html=1;strokeColor=none;fillColor=none;spacing=5;spacingTop=-20;whiteSpace=wrap;overflow=hidden;rounded=0;" vertex="1" parent="1">
          <mxGeometry x="450" y="260" width="310" height="170" as="geometry" />
        </mxCell>
        <mxCell id="dXfcMeJBa3Ihmd3_0wnO-8" value="&lt;h1&gt;Beneficio 3&lt;/h1&gt;&lt;p&gt;Lorem ipsum dolor sit amet, consectetur adipisicing elit, sed do eiusmod tempor incididunt ut labore et dolore magna aliqua.&lt;/p&gt;" style="text;html=1;strokeColor=none;fillColor=none;spacing=5;spacingTop=-20;whiteSpace=wrap;overflow=hidden;rounded=0;" vertex="1" parent="1">
          <mxGeometry x="414" y="800" width="310" height="170" as="geometry" />
        </mxCell>
        <mxCell id="dXfcMeJBa3Ihmd3_0wnO-9" value="" style="swimlane;startSize=40;" vertex="1" parent="1">
          <mxGeometry x="30" y="780" width="370" height="240" as="geometry" />
        </mxCell>
        <mxCell id="dXfcMeJBa3Ihmd3_0wnO-10" value="" style="rounded=1;whiteSpace=wrap;html=1;" vertex="1" parent="1">
          <mxGeometry x="30" y="1110" width="710" height="240" as="geometry" />
        </mxCell>
        <mxCell id="dXfcMeJBa3Ihmd3_0wnO-11" value="VANTAGENS DA GARGO" style="text;html=1;strokeColor=none;fillColor=none;align=center;verticalAlign=middle;whiteSpace=wrap;rounded=0;" vertex="1" parent="1">
          <mxGeometry x="250" y="1215" width="240" height="30" as="geometry" />
        </mxCell>
        <mxCell id="dXfcMeJBa3Ihmd3_0wnO-12" value="" style="rounded=0;whiteSpace=wrap;html=1;" vertex="1" parent="1">
          <mxGeometry x="60" y="1680" width="670" height="220" as="geometry" />
        </mxCell>
        <mxCell id="dXfcMeJBa3Ihmd3_0wnO-13" value="&lt;font style=&quot;font-size: 48px;&quot;&gt;ASSINAR GARGO PREMIUM&lt;/font&gt;" style="text;html=1;strokeColor=none;fillColor=none;align=center;verticalAlign=middle;whiteSpace=wrap;rounded=0;" vertex="1" parent="1">
          <mxGeometry x="250" y="1760" width="290" height="50" as="geometry" />
        </mxCell>
        <mxCell id="dXfcMeJBa3Ihmd3_0wnO-14" value="&lt;h1&gt;Melhore as suas finanças com Gargo Premium&lt;/h1&gt;&lt;p&gt;Lorem ipsum dolor sit amet, consectetur adipisicing elit, sed do eiusmod tempor incididunt ut labore et dolore magna aliqua.&lt;/p&gt;" style="text;html=1;strokeColor=none;fillColor=none;spacing=5;spacingTop=-20;whiteSpace=wrap;overflow=hidden;rounded=0;" vertex="1" parent="1">
          <mxGeometry x="40" y="30" width="650" height="120" as="geometry" />
        </mxCell>
        <mxCell id="dXfcMeJBa3Ihmd3_0wnO-16" value="" style="rounded=1;whiteSpace=wrap;html=1;" vertex="1" parent="1">
          <mxGeometry x="30" y="1360" width="730" height="300" as="geometry" />
        </mxCell>
        <mxCell id="dXfcMeJBa3Ihmd3_0wnO-17" value="" style="rounded=0;whiteSpace=wrap;html=1;" vertex="1" parent="1">
          <mxGeometry x="80" y="1360" width="230" height="300" as="geometry" />
        </mxCell>
        <mxCell id="dXfcMeJBa3Ihmd3_0wnO-18" value="CALCULADORA DE PLANOS" style="text;html=1;strokeColor=none;fillColor=none;align=center;verticalAlign=middle;whiteSpace=wrap;rounded=0;" vertex="1" parent="1">
          <mxGeometry x="320" y="1460" width="220" height="70" as="geometry" />
        </mxCell>
      </root>
    </mxGraphModel>
  </diagram>
</mxfile>
